<?xml version="1.0" encoding="UTF-8"?>
<svg version="1.1" xmlns="http://www.w3.org/2000/svg" width="1600" height="1600">
<path d="M0 0 C5.77306924 4.02165266 11.59484899 7.97017112 17.41833496 11.91827393 C19.50188641 13.33461978 21.58521944 14.751287 23.66833496 16.16827393 C25.21520996 17.22014893 25.21520996 17.22014893 26.79333496 18.29327393 C29.91833496 20.41827393 33.04333496 22.54327393 36.16833496 24.66827393 C37.71653931 25.72099487 37.71653931 25.72099487 39.29602051 26.79498291 C41.37054747 28.2057391 43.44492999 29.61670772 45.51916504 31.02789307 C50.30607967 34.28425919 55.09423499 37.53873181 59.8878479 40.78523254 C111.4813335 75.72753948 111.4813335 75.72753948 117.60583496 105.79327393 C119.80518278 131.30570866 110.11918769 148.36961877 95.96765137 168.47930908 C92.34244642 173.67828658 88.80398069 178.93609072 85.2562561 184.18811035 C83.45141509 186.85932939 81.6438538 189.52870281 79.83634949 192.19812012 C78.45098571 194.24414963 77.06596877 196.29041355 75.68103027 198.33673096 C71.22013266 204.92754125 66.75676756 211.51668023 62.29333496 218.10577393 C61.8577124 218.74889526 61.42208984 219.3920166 60.9732666 220.05462646 C54.40414851 229.75262001 47.82927447 239.44669194 41.25079346 249.13833618 C34.96792197 258.39467149 28.69160751 267.65543083 22.41833496 276.91827393 C15.75648128 286.75487912 9.09047732 296.58864457 2.41833496 306.41827393 C-4.21151776 316.18582309 -10.83631695 325.95677999 -17.45666504 335.73077393 C-17.89267029 336.3744693 -18.32867554 337.01816467 -18.77789307 337.68136597 C-21.87931152 342.26022616 -24.98051288 346.83923337 -28.08166504 351.41827393 C-31.62318293 356.64754137 -35.16479638 361.87674406 -38.70666504 367.10577393 C-39.14283142 367.749711 -39.5789978 368.39364807 -40.02838135 369.05709839 C-46.5969541 378.75426522 -53.1712817 388.44751131 -59.74920654 398.13833618 C-66.03207803 407.39467149 -72.30839249 416.65543083 -78.58166504 425.91827393 C-85.24351872 435.75487912 -91.90952268 445.58864457 -98.58166504 455.41827393 C-105.21151776 465.18582309 -111.83631695 474.95677999 -118.45666504 484.73077393 C-119.11067291 485.69631699 -119.11067291 485.69631699 -119.77789307 486.68136597 C-122.87931152 491.26022616 -125.98051288 495.83923337 -129.08166504 500.41827393 C-132.62318293 505.64754137 -136.16479638 510.87674406 -139.70666504 516.10577393 C-140.14283142 516.749711 -140.5789978 517.39364807 -141.02838135 518.05709839 C-147.5969541 527.75426522 -154.1712817 537.44751131 -160.74920654 547.13833618 C-167.03207803 556.39467149 -173.30839249 565.65543083 -179.58166504 574.91827393 C-186.24351872 584.75487912 -192.90952268 594.58864457 -199.58166504 604.41827393 C-206.21151776 614.18582309 -212.83631695 623.95677999 -219.45666504 633.73077393 C-219.89267029 634.3744693 -220.32867554 635.01816467 -220.77789307 635.68136597 C-223.87931152 640.26022616 -226.98051288 644.83923337 -230.08166504 649.41827393 C-233.62318293 654.64754137 -237.16479638 659.87674406 -240.70666504 665.10577393 C-241.14283142 665.749711 -241.5789978 666.39364807 -242.02838135 667.05709839 C-248.5969541 676.75426522 -255.1712817 686.44751131 -261.74920654 696.13833618 C-268.03207803 705.39467149 -274.30839249 714.65543083 -280.58166504 723.91827393 C-287.24351872 733.75487912 -293.90952268 743.58864457 -300.58166504 753.41827393 C-307.21151776 763.18582309 -313.83631695 772.95677999 -320.45666504 782.73077393 C-320.89267029 783.3744693 -321.32867554 784.01816467 -321.77789307 784.68136597 C-324.87931152 789.26022616 -327.98051288 793.83923337 -331.08166504 798.41827393 C-334.62318293 803.64754137 -338.16479638 808.87674406 -341.70666504 814.10577393 C-342.14283142 814.749711 -342.5789978 815.39364807 -343.02838135 816.05709839 C-349.59763295 825.7552674 -356.172757 835.44943545 -362.7512207 845.14135742 C-368.9910694 854.3346478 -375.22561272 863.53151933 -381.45666504 872.73077393 C-381.89267029 873.3744693 -382.32867554 874.01816467 -382.77789307 874.68136597 C-385.87931152 879.26022616 -388.98051288 883.83923337 -392.08166504 888.41827393 C-395.62318293 893.64754137 -399.16479638 898.87674406 -402.70666504 904.10577393 C-403.14283142 904.749711 -403.5789978 905.39364807 -404.02838135 906.05709839 C-410.5969541 915.75426522 -417.1712817 925.44751131 -423.74920654 935.13833618 C-430.03207803 944.39467149 -436.30839249 953.65543083 -442.58166504 962.91827393 C-449.24351872 972.75487912 -455.90952268 982.58864457 -462.58166504 992.41827393 C-469.21151776 1002.18582309 -475.83631695 1011.95677999 -482.45666504 1021.73077393 C-482.89267029 1022.3744693 -483.32867554 1023.01816467 -483.77789307 1023.68136597 C-486.87931152 1028.26022616 -489.98051288 1032.83923337 -493.08166504 1037.41827393 C-494.41422962 1039.3858869 -495.74679949 1041.35349629 -497.07939148 1043.3210907 C-497.96589972 1044.63004494 -498.85238453 1045.93901506 -499.73884583 1047.2480011 C-501.93259983 1050.48721461 -504.12697197 1053.72600622 -506.32263184 1056.96392822 C-510.21812566 1062.70932608 -514.11064493 1068.45656462 -517.98406982 1074.21687317 C-519.67483581 1076.73038546 -521.36877261 1079.24175242 -523.06304932 1081.75289917 C-523.84685667 1082.91639357 -524.62920717 1084.08087121 -525.40985107 1085.24649048 C-532.78445033 1096.25629219 -540.39865663 1107.35619822 -549.89416504 1116.66827393 C-550.4847168 1117.24980225 -551.07526855 1117.83133057 -551.68371582 1118.43048096 C-569.37862035 1135.4460823 -592.5973251 1145.88833312 -617.29650879 1145.63311768 C-640.91853976 1144.29234192 -664.15779829 1135.59271768 -683.08166504 1121.41827393 C-683.71612797 1120.94922311 -684.35059089 1120.4801723 -685.00427997 1119.99690783 C-693.68654738 1113.33292293 -701.23976446 1105.55107945 -708.96035767 1097.82046509 C-710.5632957 1096.22270083 -712.16666025 1094.62536439 -713.77041233 1093.02841723 C-718.16069009 1088.65420898 -722.54473952 1084.27380522 -726.92772889 1079.8922956 C-731.17508447 1075.64827152 -735.42708804 1071.4089121 -739.6788638 1067.16931752 C-751.05871693 1055.82149227 -762.4284981 1044.46359789 -773.79713796 1033.10454086 C-779.17883163 1027.72752688 -784.5617874 1022.3517771 -789.94489293 1016.97617663 C-808.38550107 998.56122721 -826.82400061 980.14417033 -845.25523567 961.7198391 C-846.41086124 960.56465679 -847.56648695 959.40947464 -848.72211283 958.25429264 C-849.88045151 957.09639523 -851.03879004 955.93849767 -852.19712842 954.78059995 C-854.52077853 952.45783491 -856.84443323 950.13507446 -859.16809082 947.81231689 C-859.74421485 947.23641165 -860.32033888 946.6605064 -860.91392121 946.06714948 C-879.59923762 927.38909604 -898.29681041 908.72337655 -917.00178122 890.06500722 C-936.79625664 870.31975735 -956.57980094 850.5636207 -976.35087383 830.79493678 C-978.52234708 828.62380641 -980.6938643 826.45272004 -982.86541367 824.2816658 C-983.40007166 823.74711934 -983.93472966 823.21257288 -984.48558942 822.66182804 C-993.07667706 814.07303827 -1001.67758395 805.49414764 -1010.28207017 796.91878341 C-1018.93348339 788.29614519 -1027.57365977 779.66237224 -1036.20266499 771.01730864 C-1040.87438869 766.33747515 -1045.5511266 761.66286696 -1050.24094391 757.00114441 C-1054.53833902 752.72925828 -1058.82151846 748.44362557 -1063.09404026 744.14686663 C-1064.63776514 742.59923323 -1066.18652414 741.05660052 -1067.74091531 739.51968031 C-1083.13700277 724.28567244 -1094.21008301 707.99454632 -1094.39416504 685.54327393 C-1094.43386265 662.55174197 -1083.84407838 646.05702321 -1068.07746887 630.12080383 C-1067.24192978 629.28617111 -1066.40639069 628.45153839 -1065.54553223 627.59161377 C-1064.63851059 626.67787491 -1063.73148895 625.76413605 -1062.79698181 624.82270813 C-1060.34075191 622.34903649 -1057.87828802 619.88166851 -1055.41396618 617.41606092 C-1053.86708515 615.86774591 -1052.32164198 614.31801008 -1050.77667999 612.7677803 C-1045.36562422 607.33830084 -1039.949509 601.91392956 -1034.52844238 596.4944458 C-1029.50863008 591.47583478 -1024.50008588 586.44617066 -1019.49668574 581.41120183 C-1015.17063985 577.05885533 -1010.83676536 572.71440712 -1006.49691319 568.37582743 C-1003.91815177 565.79757133 -1001.34246038 563.21643705 -998.77468109 560.62723923 C-979.60710774 541.31110363 -962.01665463 525.70151699 -933.35119629 525.35968018 C-912.47135688 525.8987466 -896.52758147 536.30674739 -882.22357178 550.79534912 C-881.19111514 551.82605672 -880.15777798 552.85588291 -879.12365031 553.88491392 C-876.31416584 556.68553981 -873.5171638 559.49833721 -870.72221613 562.31346035 C-867.69493252 565.35813742 -864.65597306 568.39112336 -861.61846924 571.42559814 C-856.36719363 576.67478386 -851.12324852 581.9312001 -845.88431549 587.19270325 C-838.30984366 594.79978563 -830.7242534 602.3957016 -823.13596854 609.98900217 C-810.8225863 622.31112289 -798.51814953 634.64213588 -786.21936035 646.9788208 C-774.27745404 658.95748471 -762.33132287 670.93190928 -750.3795166 682.9006958 C-749.64189438 683.63936892 -748.90427216 684.37804203 -748.14429775 685.13909918 C-744.44356468 688.84505268 -740.74274873 692.55092339 -737.04189157 696.25675297 C-706.37562372 726.96443778 -675.72388084 757.68658956 -645.08166504 788.41827393 C-642.71723381 786.08441309 -640.56209526 783.88818068 -638.73498535 781.10943604 C-638.32065247 780.48455795 -637.90631958 779.85967987 -637.47943115 779.21586609 C-637.04394958 778.54918411 -636.60846802 777.88250214 -636.15979004 777.19561768 C-635.69611023 776.49489639 -635.23243042 775.79417511 -634.75469971 775.07221985 C-633.2759103 772.83630107 -631.80334922 770.59637447 -630.33166504 768.35577393 C-628.40259825 765.42524919 -626.4705034 762.49675649 -624.53479004 759.57061768 C-624.06457932 758.85973495 -623.59436859 758.14885223 -623.10990906 757.41642761 C-619.81849591 752.46524602 -616.38809483 747.63710932 -612.85656738 742.85357666 C-610.03330538 738.97984372 -607.40383939 734.98407894 -604.76916504 730.98077393 C-599.19639707 722.56993009 -593.56501155 714.20063482 -587.89416504 705.85577393 C-587.49376007 705.26641052 -587.0933551 704.67704712 -586.68081665 704.06982422 C-584.63054847 701.05215471 -582.5796856 698.0348901 -580.52844238 695.0178833 C-576.97538447 689.79152252 -573.42678089 684.56213942 -569.87838745 679.33261108 C-568.70183916 677.59866174 -567.52517678 675.86478985 -566.34851074 674.13092041 C-560.42153295 665.39655097 -554.50080662 656.65795517 -548.58166504 647.91827393 C-541.87755218 638.01957348 -535.1702299 628.12306656 -528.45666504 618.23077393 C-528.06767029 617.6575943 -527.67867554 617.08441467 -527.27789307 616.49386597 C-524.15712513 611.89555915 -521.0360293 607.29747493 -517.91491699 602.69940186 C-515.17867708 598.66829836 -512.44257185 594.6371035 -509.70666504 590.60577393 C-509.31783142 590.032836 -508.9289978 589.45989807 -508.52838135 588.86959839 C-501.76302429 578.90049058 -495.00515936 568.9263188 -488.24920654 558.95083618 C-481.64300605 549.19662621 -475.03101217 539.44637068 -468.41467285 529.69903564 C-462.13162005 520.44242443 -455.85515084 511.18137127 -449.58166504 501.91827393 C-442.87758237 492.01955307 -436.17022988 482.12306652 -429.45666504 472.23077393 C-429.06767029 471.6575943 -428.67867554 471.08441467 -428.27789307 470.49386597 C-425.15712513 465.89555915 -422.0360293 461.29747493 -418.91491699 456.69940186 C-416.17867708 452.66829836 -413.44257185 448.6371035 -410.70666504 444.60577393 C-410.31783142 444.032836 -409.9289978 443.45989807 -409.52838135 442.86959839 C-403.2077955 433.55588425 -396.89356903 424.23787343 -390.58166504 414.91827393 C-383.87755218 405.01957348 -377.1702299 395.12306656 -370.45666504 385.23077393 C-370.06767029 384.6575943 -369.67867554 384.08441467 -369.27789307 383.49386597 C-366.15712513 378.89555915 -363.0360293 374.29747493 -359.91491699 369.69940186 C-357.17867708 365.66829836 -354.44257185 361.6371035 -351.70666504 357.60577393 C-351.31783142 357.032836 -350.9289978 356.45989807 -350.52838135 355.86959839 C-343.76302429 345.90049058 -337.00515936 335.9263188 -330.24920654 325.95083618 C-323.64300605 316.19662621 -317.03101217 306.44637068 -310.41467285 296.69903564 C-304.13162005 287.44242443 -297.85515084 278.18137127 -291.58166504 268.91827393 C-284.87758237 259.01955307 -278.17022988 249.12306652 -271.45666504 239.23077393 C-271.06767029 238.6575943 -270.67867554 238.08441467 -270.27789307 237.49386597 C-267.15712513 232.89555915 -264.0360293 228.29747493 -260.91491699 223.69940186 C-258.17867708 219.66829836 -255.44257185 215.6371035 -252.70666504 211.60577393 C-252.12341461 210.74636703 -252.12341461 210.74636703 -251.52838135 209.86959839 C-245.2077955 200.55588425 -238.89356903 191.23787343 -232.58166504 181.91827393 C-225.87755218 172.01957348 -219.1702299 162.12306656 -212.45666504 152.23077393 C-212.06767029 151.6575943 -211.67867554 151.08441467 -211.27789307 150.49386597 C-208.15712513 145.89555915 -205.0360293 141.29747493 -201.91491699 136.69940186 C-199.17867708 132.66829836 -196.44257185 128.6371035 -193.70666504 124.60577393 C-193.12341461 123.74636703 -193.12341461 123.74636703 -192.52838135 122.86959839 C-186.2077955 113.55588425 -179.89356903 104.23787343 -173.58166504 94.91827393 C-164.93191304 82.14681471 -156.27403171 69.38089785 -147.61096191 56.61846924 C-144.3978687 51.88472665 -141.18621633 47.15000779 -137.97540283 42.41471863 C-135.96751059 39.45378832 -133.95850418 36.49362688 -131.94689941 33.53521729 C-128.2359384 28.0764354 -124.53658318 22.61065843 -120.87072754 17.12139893 C-107.69352479 -2.55317716 -94.89277381 -18.12344154 -70.51916504 -23.45672607 C-41.96815031 -28.36621479 -22.47049881 -15.65412018 0 0 Z " fill="#000000" transform="translate(1279.0816650390625,225.58172607421875)"/>
</svg>
